<?xml version="1.0" standalone="no"?>
<!DOCTYPE svg PUBLIC "-//W3C//DTD SVG 20010904//EN"
 "http://www.w3.org/TR/2001/REC-SVG-20010904/DTD/svg10.dtd">
<svg version="1.0" xmlns="http://www.w3.org/2000/svg"
 width="734.000000pt" height="734.000000pt" viewBox="0 0 734.000000 734.000000"
 preserveAspectRatio="xMidYMid meet">
<metadata>
Created by potrace 1.14, written by Peter Selinger 2001-2017
</metadata>
<g transform="translate(0.000000,734.000000) scale(0.100000,-0.100000)"
fill="#000000" stroke="none">
<path d="M5450 7324 c-25 -8 -54 -16 -65 -18 -26 -6 -204 -64 -230 -76 -48
-22 -202 -82 -222 -87 -13 -3 -23 -9 -23 -14 0 -5 -4 -9 -10 -9 -22 0 -221
-102 -318 -164 -23 -14 -46 -26 -51 -26 -5 0 -11 -4 -13 -8 -1 -5 -32 -28 -68
-52 -36 -24 -77 -53 -91 -64 -14 -12 -43 -34 -65 -51 -151 -116 -353 -334
-450 -485 -16 -25 -31 -47 -34 -50 -5 -5 -8 -9 -74 -129 -38 -68 -124 -264
-130 -296 -2 -5 -12 -41 -24 -80 -26 -86 -48 -190 -57 -270 -4 -33 -9 -62 -10
-65 -7 -11 11 -30 31 -35 10 -2 55 -13 99 -25 101 -26 113 -29 150 -36 l30 -5
2 68 c1 62 10 168 13 168 1 0 3 9 4 20 2 11 6 34 10 50 3 17 9 41 11 55 11 61
70 222 111 305 39 77 117 209 134 225 3 3 18 23 34 45 39 53 41 55 148 165 51
52 113 111 138 130 24 19 52 43 61 52 28 27 216 152 310 206 130 75 342 173
462 215 9 4 19 7 22 9 2 1 52 18 112 37 l108 36 0 138 c0 75 -2 137 -5 136 -3
0 -25 -7 -50 -15z"/>
<path d="M1710 5034 c-41 -7 -100 -21 -130 -32 -61 -22 -173 -81 -178 -94 -2
-4 -8 -8 -13 -8 -29 0 -209 -197 -209 -229 0 -5 -4 -11 -9 -13 -5 -1 -11 -10
-13 -18 -2 -8 -6 -17 -9 -20 -10 -9 -48 -123 -63 -187 -16 -71 -19 -206 -5
-273 16 -85 19 -93 44 -161 108 -283 396 -478 709 -480 344 -3 642 226 741
571 28 97 26 289 -3 393 -108 381 -474 615 -862 551z"/>
<path d="M3570 5039 c-122 -23 -128 -24 -180 -46 -258 -108 -427 -319 -474
-588 -16 -91 -9 -265 10 -297 3 -5 8 -24 11 -41 5 -41 85 -199 126 -251 194
-247 502 -350 805 -271 273 70 481 289 549 574 14 62 20 240 10 286 -20 85
-40 152 -48 160 -5 5 -9 17 -9 26 0 9 -7 22 -15 29 -9 7 -13 15 -11 18 9 9
-77 125 -135 183 -101 100 -236 177 -359 203 -14 3 -38 9 -55 12 -41 9 -182
11 -225 3z"/>
<path d="M5359 5030 c-46 -9 -101 -24 -122 -33 -20 -9 -38 -15 -40 -15 -1 1
-36 -18 -77 -42 -165 -95 -320 -299 -355 -467 -18 -82 -20 -107 -19 -208 1
-98 6 -133 38 -240 19 -66 90 -183 157 -259 113 -128 304 -225 478 -243 113
-11 207 -3 307 28 68 21 186 77 192 91 2 5 8 8 14 8 18 0 110 83 164 149 29
35 68 96 87 135 45 93 49 101 60 151 4 17 10 41 14 55 8 31 8 242 0 290 -16
92 -94 258 -152 325 -76 87 -105 113 -176 162 -73 51 -191 99 -289 119 -65 13
-197 10 -281 -6z"/>
<path d="M2658 3284 c-2 -2 -19 -6 -38 -9 -249 -42 -463 -212 -572 -455 -16
-36 -29 -66 -29 -67 1 -2 1 -4 0 -5 -18 -58 -24 -122 -24 -233 1 -152 15 -215
73 -330 49 -98 138 -204 235 -282 36 -29 148 -84 222 -109 71 -25 95 -28 215
-28 169 -1 226 12 355 76 209 104 357 296 404 526 16 80 20 209 8 282 -33 195
-148 378 -312 495 -136 97 -255 136 -432 140 -56 1 -104 1 -105 -1z"/>
<path d="M4401 3264 c-165 -44 -295 -127 -411 -264 -29 -34 -90 -135 -90 -149
0 -6 -5 -11 -10 -11 -6 0 -9 -3 -8 -7 0 -5 -1 -15 -5 -23 -46 -120 -63 -276
-44 -405 49 -321 309 -584 630 -635 73 -12 219 -9 291 5 58 12 185 66 247 106
58 38 167 140 212 200 35 47 97 185 117 259 29 113 23 306 -14 413 -43 129
-94 212 -184 305 -94 96 -248 185 -357 207 -150 30 -256 30 -374 -1z"/>
<path d="M3550 1519 c-19 -4 -49 -10 -67 -13 -34 -6 -165 -55 -173 -66 -3 -3
-27 -19 -54 -34 -88 -51 -266 -248 -266 -295 0 -6 -5 -11 -10 -11 -6 0 -9 -3
-8 -7 0 -5 -2 -17 -6 -28 -22 -57 -42 -127 -53 -185 -7 -33 -7 -198 0 -230 18
-87 30 -129 53 -183 71 -168 204 -307 369 -387 131 -63 183 -75 330 -74 125 0
178 7 233 29 17 8 32 12 32 10 0 -9 132 62 185 100 257 183 375 511 295 815
-5 19 -9 37 -8 40 1 3 -5 16 -12 30 -8 14 -15 27 -15 30 -6 31 -69 133 -114
187 -117 140 -270 233 -441 268 -53 11 -230 14 -270 4z"/>
</g>
</svg>
